PathFileType	4	(X/Y/Z)	RBDS002static.trc
DataRate	CameraRate	NumFrames	NumMarkers	Units	OrigDataRate	OrigDataStartFrame	OrigNumFrames
150.000000	150.000000	4	48	mm	150.000000	112	150
Frame#	Time	L.Ankle			L.Ankle.Medial			L.ASIS			L.GTR			L.Heel.Bottom			L.Heel.Lateral			L.Heel.Top			L.HF			L.Iliac.Crest			L.Knee			L.Knee.Medial			L.MT1			L.MT2			L.MT5			L.PSIS			L.Shank.Bottom.Lateral			L.Shank.Bottom.Medial			L.Shank.Top.Lateral			L.Shank.Top.Medial			L.Thigh.Bottom.Lateral			L.Thigh.Bottom.Medial			L.Thigh.Top.Lateral			L.Thigh.Top.Medial			L.TT			R.Ankle			R.Ankle.Medial			R.ASIS			R.GTR			R.Heel.Bottom			R.Heel.Lateral			R.Heel.Top			R.HF			R.Iliac.Crest			R.Knee			R.Knee.Medial			R.MT1			R.MT2			R.MT5			R.PSIS			R.Shank.Bottom.Lateral			R.Shank.Bottom.Medial			R.Shank.Top.Lateral			R.Shank.Top.Medial			R.Thigh.Bottom.Lateral			R.Thigh.Bottom.Medial			R.Thigh.Top.Lateral			R.Thigh.Top.Medial			R.TT			
		X1	Y1	Z1	X2	Y2	Z2	X3	Y3	Z3	X4	Y4	Z4	X5	Y5	Z5	X6	Y6	Z6	X7	Y7	Z7	X8	Y8	Z8	X9	Y9	Z9	X10	Y10	Z10	X11	Y11	Z11	X12	Y12	Z12	X13	Y13	Z13	X14	Y14	Z14	X15	Y15	Z15	X16	Y16	Z16	X17	Y17	Z17	X18	Y18	Z18	X19	Y19	Z19	X20	Y20	Z20	X21	Y21	Z21	X22	Y22	Z22	X23	Y23	Z23	X24	Y24	Z24	X25	Y25	Z25	X26	Y26	Z26	X27	Y27	Z27	X28	Y28	Z28	X29	Y29	Z29	X30	Y30	Z30	X31	Y31	Z31	X32	Y32	Z32	X33	Y33	Z33	X34	Y34	Z34	X35	Y35	Z35	X36	Y36	Z36	X37	Y37	Z37	X38	Y38	Z38	X39	Y39	Z39	X40	Y40	Z40	X41	Y41	Z41	X42	Y42	Z42	X43	Y43	Z43	X44	Y44	Z44	X45	Y45	Z45	X46	Y46	Z46	X47	Y47	Z47	X48	Y48	Z48	

113	0.7466666666666667	713.179931640625	106.3125152587891	1030.583618164063	735.3858032226563	119.1029434204102	1112.113647460938	853.7589111328125	1050.511840820313	1108.940551757813	775.4982299804688	953.8352661132813	1032.2197265625	637.37890625	44.15551376342773	1072.249877929688	670.4740600585938	55.17201995849609	1027.270751953125	648.855224609375	94.16275024414063	1071.432983398438	723.196044921875	483.9987487792969	1008.197875976563	767.4922485351563	1129.436279296875	1052.0986328125	736.0557250976563	552.0316162109375	1011.987609863281	715.007568359375	530.0062255859375	1140.758422851563	864.9899291992188	63.62726974487305	1121.719970703125	871.5409545898438	71.23291015625	1073.809692382813	838.7471313476563	47.46797943115234	1005.172790527344	666.0557861328125	1096.396362304688	1167.46240234375	701.72705078125	176.4248352050781	1020.333618164063	663.0291748046875	175.5809631347656	1054.352416992188	691.3895874023438	255.2327423095703	1004.640502929688	652.9576416015625	259.2490844726563	1041.312133789063	725.7272338867188	649.0162963867188	1010.973754882813	673.3256225585938	641.893310546875	1061.950927734375	714.8115844726563	758.8592529296875	1020.150512695313	668.2493286132813	752.1812133789063	1070.369750976563	782.2784423828125	462.8209228515625	1062.778930664063	709.9616088867188	104.9524993896484	1411.271606445313	733.0221557617188	121.2630844116211	1327.326416015625	849.6849975585938	1049.848876953125	1327.123046875	767.7067260742188	964.6339721679688	1399.25927734375	632.5531005859375	44.03342437744141	1374.592041015625	658.045166015625	59.16400527954102	1412.342407226563	644.72412109375	94.41993713378906	1373.253295898438	734.0675659179688	486.583251953125	1422.96484375	764.7603149414063	1132.85595703125	1374.5888671875	734.5271606445313	558.7244262695313	1415.78515625	722.1351318359375	535.888671875	1285.104248046875	862.4921875	66.23454284667969	1323.6328125	865.8626098632813	74.7364501953125	1366.887329101563	838.3809204101563	56.96625518798828	1435.816284179688	664.7513427734375	1098.10302734375	1256.566040039063	697.4178466796875	189.1208648681641	1423.641845703125	657.5274047851563	191.2861785888672	1386.450927734375	688.6782836914063	268.9076538085938	1435.74072265625	651.1862182617188	270.3907470703125	1396.365234375	718.7656860351563	660.1078491210938	1418.249389648438	665.8555297851563	657.6812744140625	1366.197875976563	710.5765380859375	770.6737670898438	1417.568603515625	661.3540649414063	767.88330078125	1367.4404296875	789.1864624023438	475.6188659667969	1367.602783203125	
114	0.7533333333333334	713.1888427734375	106.322151184082	1030.585327148438	735.3778686523438	119.0996551513672	1112.120483398438	853.7779541015625	1050.514892578125	1108.947631835938	775.517822265625	953.8428344726563	1032.22216796875	637.3825073242188	44.15008926391602	1072.254760742188	670.48046875	55.1684684753418	1027.278930664063	648.8569946289063	94.17015838623047	1071.417602539063	723.2200317382813	483.9972839355469	1008.197509765625	767.523193359375	1129.431030273438	1052.094482421875	736.0645141601563	552.028564453125	1011.985717773438	715.0079956054688	530.0066528320313	1140.765014648438	864.9976196289063	63.62851333618164	1121.730102539063	871.5340576171875	71.24431610107422	1073.80517578125	838.7522583007813	47.4720573425293	1005.174255371094	666.0704956054688	1096.40869140625	1167.47265625	701.7332763671875	176.4277801513672	1020.334411621094	663.0294189453125	175.5835571289063	1054.365112304688	691.4038696289063	255.237060546875	1004.632873535156	652.9718017578125	259.2515258789063	1041.310302734375	725.7486572265625	649.0291748046875	1010.965270996094	673.33642578125	641.8987426757813	1061.947998046875	714.8301391601563	758.858642578125	1020.147644042969	668.2685546875	752.1827392578125	1070.37451171875	782.2886352539063	462.8211669921875	1062.789672851563	709.961181640625	104.9584350585938	1411.269775390625	733.0219116210938	121.2552337646484	1327.332397460938	849.702392578125	1049.848999023438	1327.132446289063	767.7098388671875	964.6444091796875	1399.268310546875	632.5467529296875	44.03801727294922	1374.594604492188	658.0386962890625	59.17110061645508	1412.339233398438	644.7296752929688	94.42442321777344	1373.2470703125	734.0720825195313	486.5780334472656	1422.969970703125	764.7804565429688	1132.871704101563	1374.599243164063	734.5422973632813	558.74072265625	1415.78955078125	722.1363525390625	535.8927612304688	1285.093994140625	862.5020751953125	66.2354736328125	1323.614624023438	865.8658447265625	74.7353515625	1366.88671875	838.3819580078125	56.97454833984375	1435.819946289063	664.7676391601563	1098.111206054688	1256.568237304688	697.4242553710938	189.1181640625	1423.643920898438	657.5219116210938	191.2913208007813	1386.445922851563	688.6882934570313	268.9080810546875	1435.74951171875	651.1901245117188	270.3922119140625	1396.376831054688	718.7643432617188	660.1100463867188	1418.254638671875	665.8594970703125	657.6876220703125	1366.18603515625	710.5797729492188	770.6727905273438	1417.5654296875	661.3560180664063	767.8817138671875	1367.431518554688	789.1890869140625	475.6251220703125	1367.602294921875	
115	0.76	713.1883544921875	106.3021087646484	1030.594116210938	735.3876342773438	119.1090087890625	1112.118041992188	853.79638671875	1050.5048828125	1108.9482421875	775.5396728515625	953.837158203125	1032.2236328125	637.3880004882813	44.14533233642578	1072.249633789063	670.4746704101563	55.17388153076172	1027.280517578125	648.8552856445313	94.16773986816406	1071.421264648438	723.2178955078125	483.9997253417969	1008.196166992188	767.5487060546875	1129.429809570313	1052.093627929688	736.0812377929688	552.0271606445313	1011.993347167969	715.0164184570313	530.0076293945313	1140.768188476563	864.9993896484375	63.61827850341797	1121.73291015625	871.5443725585938	71.23613739013672	1073.817626953125	838.7515258789063	47.46141052246094	1005.180297851563	666.089111328125	1096.410400390625	1167.466430664063	701.736083984375	176.430908203125	1020.335998535156	663.0345458984375	175.5880432128906	1054.362548828125	691.398193359375	255.2392730712891	1004.639709472656	652.9769897460938	259.2544250488281	1041.303833007813	725.7623291015625	649.0122680664063	1010.976989746094	673.349609375	641.8912353515625	1061.948974609375	714.8338012695313	758.86279296875	1020.151794433594	668.2852783203125	752.1845703125	1070.3818359375	782.296630859375	462.8072204589844	1062.794799804688	709.9640502929688	104.953857421875	1411.275756835938	733.0261840820313	121.2537155151367	1327.329345703125	849.7152099609375	1049.84716796875	1327.139038085938	767.7119140625	964.6320190429688	1399.27294921875	632.5494995117188	44.03986358642578	1374.603759765625	658.0501708984375	59.16447830200195	1412.349853515625	644.7255859375	94.42259979248047	1373.244384765625	734.0787963867188	486.586669921875	1422.966674804688	764.7921142578125	1132.89013671875	1374.60986328125	734.5494384765625	558.74853515625	1415.795532226563	722.1676635742188	535.8897705078125	1285.094970703125	862.4306030273438	66.18463134765625	1323.642456054688	865.8601684570313	74.72744750976563	1366.886108398438	838.3818969726563	56.96785354614258	1435.814208984375	664.7853393554688	1098.119750976563	1256.573608398438	697.4261474609375	189.1226196289063	1423.6474609375	657.534423828125	191.2878265380859	1386.451293945313	688.70166015625	268.9033508300781	1435.7548828125	651.1981811523438	270.39892578125	1396.380249023438	718.7650756835938	660.114501953125	1418.261474609375	665.8720092773438	657.6966552734375	1366.19873046875	710.5772094726563	770.6761474609375	1417.572143554688	661.3605346679688	767.8795166015625	1367.436279296875	789.1968994140625	475.6247863769531	1367.616455078125	
116	0.7666666666666667	713.1859130859375	106.312385559082	1030.58251953125	735.3920288085938	119.0995559692383	1112.117309570313	853.8247680664063	1050.495727539063	1108.952392578125	775.5650634765625	953.84130859375	1032.233154296875	637.38037109375	44.15106964111328	1072.244384765625	670.4797973632813	55.16876220703125	1027.270141601563	648.8578491210938	94.15644073486328	1071.421875	723.226806640625	484.0053405761719	1008.200500488281	767.5835571289063	1129.418334960938	1052.089233398438	736.0855712890625	552.0277099609375	1011.991088867188	715.0288696289063	530.0091552734375	1140.770141601563	864.9945068359375	63.61476135253906	1121.745727539063	871.54296875	71.23532104492188	1073.82177734375	838.7495727539063	47.45873641967773	1005.183166503906	666.1118774414063	1096.417602539063	1167.468994140625	701.7330322265625	176.4300231933594	1020.32763671875	663.0401000976563	175.5778198242188	1054.364013671875	691.4052734375	255.2424774169922	1004.636962890625	652.9824829101563	259.2619323730469	1041.3095703125	725.7805786132813	649.0245971679688	1010.986022949219	673.3606567382813	641.9052734375	1061.942993164063	714.8504638671875	758.8624267578125	1020.148254394531	668.2984008789063	752.1793823242188	1070.380615234375	782.308837890625	462.8222351074219	1062.790649414063	709.96435546875	104.9577713012695	1411.269897460938	733.0297241210938	121.2619171142578	1327.323364257813	849.7314453125	1049.840209960938	1327.143676757813	767.7266845703125	964.63916015625	1399.2763671875	632.552734375	44.04199600219727	1374.599853515625	658.0367431640625	59.17388153076172	1412.344848632813	644.730224609375	94.43244171142578	1373.249877929688	734.0803833007813	486.5886535644531	1422.96826171875	764.8099975585938	1132.896484375	1374.606811523438	734.5530395507813	558.7295532226563	1415.791015625	722.1666259765625	535.8950805664063	1285.090576171875	862.5001831054688	66.22461700439453	1323.622436523438	865.874267578125	74.73259735107422	1366.88720703125	838.38916015625	56.97192764282227	1435.814575195313	664.8106079101563	1098.118774414063	1256.579833984375	697.4459228515625	189.1220092773438	1423.651123046875	657.5408325195313	191.2895355224609	1386.45458984375	688.708740234375	268.9091186523438	1435.753662109375	651.1983642578125	270.395263671875	1396.388305664063	718.7760009765625	660.1072387695313	1418.263427734375	665.8741455078125	657.6918334960938	1366.201171875	710.5861206054688	770.6777954101563	1417.572998046875	661.3634643554688	767.8855590820313	1367.442260742188	789.2006225585938	475.6271667480469	1367.60888671875	
